<svg width="23" height="23" viewBox="0 0 23 23" fill="none" xmlns="http://www.w3.org/2000/svg">
<g clip-path="url(#clip0_290_294)">
<path d="M6.70801 6.7085H5.74967C5.24134 6.7085 4.75383 6.91043 4.39439 7.26987C4.03494 7.62932 3.83301 8.11683 3.83301 8.62516V17.2502C3.83301 17.7585 4.03494 18.246 4.39439 18.6055C4.75383 18.9649 5.24134 19.1668 5.74967 19.1668H14.3747C14.883 19.1668 15.3705 18.9649 15.73 18.6055C16.0894 18.246 16.2913 17.7585 16.2913 17.2502V16.2918" stroke="#5D5D5D" stroke-width="1.5" stroke-linecap="round" stroke-linejoin="round"/>
<path d="M19.5356 6.31073C19.9131 5.93329 20.1251 5.42138 20.1251 4.8876C20.1251 4.35383 19.9131 3.84191 19.5356 3.46448C19.1582 3.08704 18.6463 2.875 18.1125 2.875C17.5787 2.875 17.0668 3.08704 16.6894 3.46448L8.625 11.5001V14.3751H11.5L19.5356 6.31073V6.31073Z" stroke="#5D5D5D" stroke-width="1.5" stroke-linecap="round" stroke-linejoin="round"/>
<path d="M15.333 4.7915L18.208 7.6665" stroke="#5D5D5D" stroke-width="1.5" stroke-linecap="round" stroke-linejoin="round"/>
</g>
<defs>
<clipPath id="clip0_290_294">
<rect width="23" height="23" fill="white"/>
</clipPath>
</defs>
</svg>
